# xmcd
#
# Track frame offsets: 
#        150
#        10564
#        23066
#        32129
#        44266
#        58691
#        73100
#        85597
#        101030
#        115466
#        144236
#        166912
#
# Disc length: 2492 seconds
#
# Revision: 1
# Processed by: cddbd v1.5.2PL0 Copyright (c) Steve Scherf et al.
# Submitted via: ExactAudioCopy v1.5
#
DISCID=9409ba0c
DTITLE=Various Artist - THE GREATS OF JAZZ
DYEAR=1900
DGENRE=Jazz
TTITLE0=Louis Armstrong - What a Wonderful World
TTITLE1=Miles Davis - Mile Stone
TTITLE2=Shirley Bassey - Big Spender
TTITLE3=Ella Fitzgerald - My Baby Likes To Bebop (And I Like To Bebop 
TTITLE3=Too)
TTITLE4=Billie Holiday - Baby I Don't Cry Over You
TTITLE5=Miles Davis - Birds Of Paradise
TTITLE6=Dionne Warwick - Alfie
TTITLE7=Shirley Bassey - New York, New York (Medley)
TTITLE8=Louis Armstrong - When The Saints Go Marchin' In
TTITLE9=Wynton Marsalis, Art Blakey and The Jazz Messengers - Jody
TTITLE10=Cozy Cole, Marty Napoleon and Lionel Hampton - Cabaret
TTITLE11=Chick Corea and Lionel Hampton - Moments Notice
EXTD=
EXTT0=
EXTT1=
EXTT2=
EXTT3=
EXTT4=
EXTT5=
EXTT6=
EXTT7=
EXTT8=
EXTT9=
EXTT10=
EXTT11=
PLAYORDER=
